<?xml version="1.0" standalone="no"?>
<!DOCTYPE svg PUBLIC "-//W3C//DTD SVG 20010904//EN"
 "http://www.w3.org/TR/2001/REC-SVG-20010904/DTD/svg10.dtd">
<svg version="1.0" xmlns="http://www.w3.org/2000/svg"
 width="2738.000000pt" height="1081.000000pt" viewBox="0 0 2738.000000 1081.000000"
 preserveAspectRatio="xMidYMid meet">

<g transform="translate(0.000000,1081.000000) scale(0.100000,-0.100000)"
fill="#000000" stroke="none">
<path d="M14225 9490 c-4 -6 -11 -8 -16 -5 -17 11 -31 -6 -18 -21 10 -12 8
-14 -11 -11 -13 2 -27 12 -31 23 -6 16 -8 16 -8 2 -1 -9 4 -20 9 -23 6 -4 8
-10 6 -14 -7 -10 56 -1 71 11 7 5 18 6 25 2 10 -5 10 -4 1 6 -6 7 -9 19 -6 26
6 16 -13 19 -22 4z m-5 -20 c8 -5 11 -10 5 -10 -5 0 -17 5 -25 10 -8 5 -10 10
-5 10 6 0 17 -5 25 -10z"/>
<path d="M14295 9480 c-4 -6 -3 -10 2 -9 21 4 32 -2 27 -15 -3 -8 3 -19 15
-25 26 -14 28 -14 35 5 5 14 4 15 -8 5 -8 -7 -17 -8 -20 -3 -8 14 15 28 42 26
26 -2 27 0 5 17 -11 10 -14 10 -9 2 4 -7 3 -13 -3 -13 -5 0 -13 5 -16 10 -10
17 -25 11 -19 -7 5 -16 4 -16 -8 -3 -16 19 -35 23 -43 10z"/>
<path d="M14270 9455 c0 -7 30 -13 34 -7 3 4 -4 9 -15 9 -10 1 -19 0 -19 -2z"/>
<path d="M14106 9432 c-2 -4 4 -9 15 -9 11 -1 17 2 14 8 -7 11 -22 12 -29 1z"/>
<path d="M14391 9414 c0 -11 3 -14 6 -6 3 7 2 16 -1 19 -3 4 -6 -2 -5 -13z"/>
<path d="M14320 9395 c0 -9 -6 -12 -17 -8 -11 4 -14 3 -9 -6 8 -12 50 -11 63
2 4 5 1 12 -7 17 -21 14 -30 12 -30 -5z"/>
<path d="M14265 9360 c-3 -5 -1 -10 4 -10 6 0 11 5 11 10 0 6 -2 10 -4 10 -3
0 -8 -4 -11 -10z"/>
<path d="M12805 8438 c-37 -13 -112 -66 -188 -131 l-58 -51 -45 22 c-53 26
-129 30 -138 6 -3 -9 -11 -12 -18 -8 -7 4 -10 4 -6 -1 11 -11 -11 -47 -24 -39
-6 4 -9 1 -6 -7 3 -8 22 -16 44 -19 54 -8 64 -16 64 -53 0 -41 -15 -63 -111
-162 -110 -115 -120 -166 -53 -296 24 -49 122 -175 171 -221 l29 -28 77 160
c89 185 89 182 52 381 -14 74 -25 137 -25 142 0 17 26 4 67 -34 66 -61 159
-99 241 -99 82 0 146 16 138 35 -2 8 4 16 17 19 18 5 19 8 8 15 -13 8 -13 12
0 27 8 11 9 15 2 10 -9 -5 -11 -2 -7 8 3 9 10 13 15 10 5 -3 9 -1 9 5 0 5 -8
14 -17 20 -15 8 -16 12 -4 23 8 8 11 8 7 1 -3 -6 -2 -14 3 -17 14 -9 21 20 8
34 -9 10 -9 14 0 17 10 3 10 10 2 24 -5 11 -8 23 -5 28 7 10 -18 34 -26 26 -3
-3 -5 5 -4 17 1 16 -4 22 -14 20 -8 -2 -12 0 -8 3 11 11 -11 47 -24 39 -6 -4
-8 -3 -5 3 8 13 -17 36 -28 25 -5 -4 -5 -2 -1 5 17 30 -86 60 -139 41z"/>
<path d="M13151 7612 c-16 -31 -54 -121 -85 -199 -181 -453 -232 -706 -223
-1098 9 -339 56 -619 168 -994 22 -73 37 -136 34 -140 -10 -9 -47 40 -138 184
-120 188 -175 287 -286 516 -151 312 -256 590 -341 910 -23 85 -48 175 -56
201 -18 61 -76 327 -108 502 -22 118 -36 173 -36 141 0 -4 -6 -2 -14 4 -11 9
-14 8 -12 -6 0 -10 -5 -17 -12 -15 -8 1 -11 -2 -7 -8 3 -5 1 -10 -6 -10 -7 0
-4 -7 7 -16 10 -8 14 -13 7 -10 -6 4 -15 1 -18 -5 -4 -5 -13 -8 -20 -5 -7 2
-12 -3 -11 -12 1 -11 -6 -17 -20 -16 -24 1 -24 -8 -3 -181 5 -44 9 -99 9 -123
0 -41 -2 -44 -22 -38 -47 14 -345 85 -380 92 -26 4 -38 3 -38 -5 0 -7 -4 -9
-10 -6 -6 3 -7 -1 -4 -10 5 -11 0 -18 -15 -22 -23 -6 -29 -23 -7 -23 27 0 273
-83 377 -127 l106 -45 98 -286 c230 -676 286 -848 341 -1030 31 -106 54 -195
51 -198 -3 -3 -59 23 -124 59 -324 177 -687 335 -1013 438 -153 48 -192 75
-237 167 -21 43 -25 62 -20 102 9 75 70 183 128 226 l31 23 68 -25 c37 -13 85
-24 106 -24 79 1 163 61 204 146 23 47 47 150 37 160 -3 3 -83 7 -177 8 -159
1 -173 0 -186 -18 -10 -14 -14 -16 -14 -5 0 12 -2 12 -10 -1 -7 -11 -2 -21 18
-38 15 -13 22 -21 16 -18 -6 3 -23 -8 -39 -24 -26 -27 -27 -30 -12 -58 13 -28
8 -67 -7 -44 -3 6 0 13 6 15 7 3 8 6 2 6 -5 1 -19 -6 -30 -15 -10 -8 -14 -13
-7 -10 6 4 14 2 18 -4 3 -5 1 -10 -4 -10 -6 0 -11 -7 -11 -16 0 -9 5 -12 12
-8 7 4 8 3 4 -4 -4 -6 -14 -8 -23 -5 -12 5 -14 3 -8 -6 6 -10 2 -11 -15 -6
-19 6 -22 4 -16 -10 4 -11 -4 -27 -26 -48 -18 -17 -26 -27 -18 -23 8 4 6 0 -4
-8 -15 -12 -23 -13 -33 -4 -11 9 -13 8 -11 -2 2 -7 -3 -15 -11 -18 -9 -3 -11
0 -6 8 5 9 4 11 -4 6 -9 -6 -9 -11 1 -24 11 -13 10 -15 -4 -9 -11 4 -18 0 -21
-11 -4 -15 -5 -14 -6 2 -1 15 -3 16 -16 6 -13 -11 -13 -15 -3 -21 9 -6 6 -9
-11 -9 -18 0 -22 -4 -18 -20 3 -11 1 -18 -4 -14 -5 3 -9 2 -9 -1 0 -10 77
-167 97 -197 9 -15 14 -30 10 -34 -3 -4 -47 1 -96 11 -49 9 -94 14 -100 11 -5
-4 -12 -2 -16 4 -11 18 -26 10 -25 -12 3 -37 1 -41 -17 -27 -15 13 -15 12 -3
-8 12 -18 12 -24 0 -37 -7 -9 -10 -19 -7 -22 3 -3 65 -17 139 -30 187 -34 360
-78 512 -131 156 -54 376 -151 376 -166 0 -6 3 -8 6 -4 3 3 11 1 18 -4 6 -5
58 -40 116 -78 141 -91 244 -175 372 -304 345 -347 541 -719 637 -1207 34
-173 58 -420 41 -420 -5 0 -64 31 -132 70 -212 121 -414 205 -578 240 -95 21
-286 44 -298 36 -5 -3 -49 -1 -98 4 -49 5 -136 14 -194 20 -172 18 -369 76
-509 151 -173 93 -241 182 -265 346 -7 50 10 180 32 247 15 42 22 50 57 62 88
29 179 181 195 326 6 46 10 102 10 126 l0 44 -40 -35 c-22 -18 -59 -40 -82
-47 -71 -23 -197 -89 -208 -109 -18 -34 -11 -79 27 -171 l36 -90 -25 -47 c-15
-27 -32 -68 -39 -92 -15 -50 -32 -61 -59 -36 -16 15 -31 17 -88 12 -80 -7
-152 -33 -247 -91 -38 -24 -87 -52 -108 -63 l-39 -19 64 -18 c34 -10 103 -41
153 -69 83 -48 94 -52 155 -52 56 0 70 4 101 28 46 35 55 34 63 -4 8 -39 67
-165 117 -247 39 -64 48 -92 29 -92 -11 0 -167 64 -255 105 -86 40 -221 73
-490 120 -441 77 -547 110 -641 201 -36 35 -44 50 -44 79 0 22 5 35 13 35 7 0
51 19 98 42 l84 42 125 1 c114 0 130 3 180 26 72 35 124 81 195 174 67 87 67
86 -35 126 -75 29 -119 34 -178 19 -42 -9 -63 -24 -125 -85 -41 -40 -93 -98
-116 -128 -59 -80 -127 -128 -204 -142 -42 -8 -46 1 -18 36 10 13 41 63 70
111 49 83 52 86 93 93 68 11 113 33 137 66 13 17 25 28 28 25 8 -7 71 71 110
136 35 58 63 151 63 210 0 48 -7 49 -146 3 -121 -40 -178 -70 -240 -127 -62
-57 -83 -108 -94 -224 -4 -55 -16 -119 -25 -144 -24 -68 -71 -110 -90 -80 -4
6 -10 59 -14 118 l-8 107 48 82 c58 98 79 158 79 221 0 43 -4 52 -42 89 -51
50 -82 63 -149 63 -56 0 -60 -5 -137 -155 -55 -107 -72 -158 -72 -215 0 -42 4
-52 33 -77 19 -16 55 -35 80 -43 53 -14 51 -10 67 -140 6 -47 13 -100 17 -119
l6 -34 -62 6 c-91 8 -107 22 -113 100 -6 72 -27 116 -67 140 -24 14 -33 13
-101 -4 -143 -36 -320 -142 -320 -192 0 -79 59 -186 112 -203 38 -12 107 7
210 57 82 40 110 50 136 45 53 -8 122 -37 122 -51 0 -7 -29 -31 -65 -53 -49
-31 -71 -53 -92 -91 -27 -49 -30 -51 -71 -51 -24 0 -59 -7 -78 -16 -55 -26
-130 -117 -180 -219 -44 -87 -47 -100 -52 -191 l-5 -97 49 7 c103 15 152 35
228 96 60 47 82 73 107 121 17 34 33 71 35 83 18 96 24 135 24 168 0 71 62
157 114 158 11 1 32 7 46 15 37 21 90 20 90 -2 0 -10 -28 -71 -63 -135 -51
-95 -73 -126 -122 -169 -33 -28 -68 -64 -78 -78 -52 -77 -41 -163 34 -270 46
-66 51 -70 75 -61 78 30 142 84 205 174 51 71 51 71 45 133 l-5 61 47 30 c80
52 150 67 297 66 232 -1 557 -80 995 -242 357 -133 572 -181 960 -217 200 -18
281 -30 383 -57 120 -32 112 -38 -68 -53 -117 -10 -254 -42 -369 -86 -60 -22
-117 -42 -125 -44 -9 -2 -45 -10 -81 -19 -339 -80 -676 -70 -905 27 -128 54
-365 230 -365 270 0 9 14 24 30 32 25 13 52 15 153 9 l122 -6 28 30 c18 19 31
45 34 70 l5 40 -96 31 c-148 48 -189 39 -202 -44 -5 -36 -10 -45 -26 -45 -26
0 -78 -53 -78 -79 0 -19 -6 -21 -63 -21 -38 0 -88 -8 -122 -20 -32 -11 -65
-20 -73 -20 -8 0 -41 18 -74 40 -95 63 -119 57 -189 -46 -27 -41 -59 -80 -69
-87 -28 -17 -25 -31 15 -66 70 -61 166 -37 303 77 90 75 130 96 182 96 27 0
55 -6 64 -13 14 -12 13 -16 -9 -42 -13 -16 -34 -61 -47 -100 -22 -70 -24 -72
-80 -100 -80 -41 -99 -63 -96 -117 1 -25 8 -50 14 -57 7 -7 10 -15 7 -19 -4
-3 -2 -6 4 -6 9 0 31 -44 48 -95 6 -19 7 -19 16 -2 6 9 14 15 20 12 5 -4 9 -3
9 2 0 4 14 14 30 22 17 7 46 28 65 46 40 37 45 73 20 165 -21 80 -20 145 5
170 32 32 54 24 96 -32 21 -29 65 -73 96 -98 59 -48 83 -61 231 -126 48 -21
87 -43 87 -49 0 -5 -44 -39 -97 -75 -101 -69 -208 -175 -239 -237 -16 -31 -19
-61 -19 -162 l0 -125 -90 -43 c-125 -59 -150 -61 -263 -24 -51 17 -102 31
-115 31 -12 0 -38 -17 -57 -37 -19 -20 -28 -32 -20 -28 8 5 -5 -11 -29 -33
-24 -23 -39 -42 -32 -42 7 0 9 -5 5 -12 -4 -7 -3 -8 4 -4 6 3 16 -3 22 -15 7
-11 14 -19 16 -16 2 2 21 -13 42 -34 76 -75 155 -57 292 66 87 78 159 127 213
145 34 11 40 10 52 -7 20 -25 18 -51 -3 -57 -35 -12 -59 -51 -97 -161 -36
-105 -41 -113 -103 -172 -57 -54 -65 -67 -69 -106 -5 -43 20 -137 36 -137 4 0
22 16 41 35 19 19 39 35 45 35 7 0 26 14 44 30 31 30 31 32 31 128 1 217 40
342 108 342 18 0 53 -92 68 -174 15 -89 21 -98 113 -149 l50 -28 11 38 c24 86
32 158 21 185 -10 28 -8 27 -164 69 -50 13 -73 37 -81 85 -9 45 2 56 80 80 49
16 54 16 115 -5 126 -42 141 -40 251 24 l98 57 -57 51 c-69 65 -89 76 -131 77
-45 0 -79 -19 -135 -79 -45 -48 -113 -81 -166 -81 -9 0 -29 -7 -44 -15 -37
-19 -41 -7 -34 95 5 85 34 161 80 216 41 49 173 134 255 166 87 34 180 52 353
68 138 13 376 50 514 81 280 62 308 67 445 75 314 19 570 -102 674 -318 42
-89 79 -222 103 -378 22 -143 24 -601 5 -820 -40 -438 -145 -793 -298 -1000
-63 -86 -193 -211 -329 -317 -116 -91 -428 -302 -530 -359 l-59 -33 29 -12
c229 -90 674 -209 965 -259 357 -60 424 -65 920 -65 494 0 598 8 921 71 74 14
140 26 147 26 6 1 12 6 12 13 0 6 -6 17 -12 24 -9 10 -9 12 -1 7 19 -10 25 11
7 28 -8 9 -13 17 -10 17 3 1 10 2 15 3 5 0 13 5 18 10 4 5 3 6 -4 2 -6 -3 -14
-2 -18 4 -4 6 -10 8 -15 5 -4 -3 -7 6 -6 20 1 23 8 29 29 26 12 -2 8 6 -10 20
-15 12 -16 12 -8 -1 6 -12 5 -12 -5 -3 -14 13 -4 37 12 27 6 -4 -5 14 -25 41
-20 26 -34 52 -30 58 3 5 1 7 -4 4 -15 -9 -24 18 -11 31 8 8 4 9 -13 5 -20 -6
-21 -5 -9 9 8 9 22 13 30 11 12 -4 12 -3 1 5 -7 5 -18 16 -23 23 -8 11 -8 10
-4 -4 3 -10 2 -16 -3 -13 -14 9 -21 47 -8 40 7 -3 -1 6 -18 21 -16 14 -22 23
-12 19 13 -5 17 -1 17 17 0 19 -2 21 -10 9 -8 -13 -10 -13 -10 2 0 11 -5 15
-15 12 -11 -5 -13 -2 -9 10 4 10 0 18 -10 22 -9 3 -16 16 -16 29 0 12 -10 30
-22 38 -21 15 -22 16 -4 16 19 1 19 1 1 15 -20 15 -27 64 -12 84 5 7 7 15 3
19 -3 3 -6 1 -6 -5 0 -7 -7 -12 -16 -12 -14 0 -14 3 -4 15 9 11 9 15 1 15 -7
0 -10 4 -6 9 3 5 -17 40 -45 76 -192 254 -301 725 -301 1295 1 504 86 834 300
1152 112 166 115 169 192 175 84 7 144 -10 279 -82 58 -31 168 -87 245 -124
77 -38 163 -84 191 -103 l50 -34 50 16 c31 11 43 19 34 23 -12 4 -12 6 2 6 9
1 18 -4 20 -9 2 -7 11 -5 23 4 19 14 19 15 -9 38 -96 76 -148 105 -399 222
-152 71 -277 135 -277 142 0 28 215 138 376 192 235 79 682 132 997 118 78 -3
262 -9 410 -12 175 -4 267 -10 267 -17 0 -6 -13 -31 -29 -56 -42 -68 -54 -114
-46 -179 7 -54 11 -61 86 -137 l79 -81 0 -111 c0 -86 3 -113 15 -123 12 -10
18 -10 30 0 8 7 15 10 15 6 0 -3 31 24 68 61 38 38 80 74 95 80 15 7 27 18 27
25 0 9 3 8 10 -2 8 -12 10 -11 10 6 0 16 5 21 24 19 35 -4 43 34 13 57 -24 19
-100 38 -147 38 -19 0 -30 5 -30 14 0 25 50 56 124 77 80 23 144 51 127 57 -6
2 -16 13 -22 24 -8 15 -8 19 0 13 8 -4 10 2 7 20 -3 14 -1 36 5 48 l10 22 -5
-23 c-2 -12 0 -20 5 -16 5 3 9 12 9 21 0 13 3 13 15 3 13 -11 14 -10 9 4 -4
10 0 18 10 22 14 5 14 9 4 23 -12 14 -11 15 5 2 14 -11 15 -16 5 -29 -11 -13
-10 -15 12 -9 14 4 28 7 33 7 4 0 7 7 7 16 0 8 5 12 11 8 7 -4 9 2 7 17 -4 30
-37 38 -168 41 -92 2 -111 -1 -153 -21 -26 -12 -60 -39 -77 -59 -31 -38 -60
-110 -60 -149 0 -31 -24 -29 -48 5 -69 97 -78 163 -33 234 l29 45 113 13 c200
22 390 80 507 153 57 37 55 55 -5 52 -27 -2 -61 -8 -77 -14 -26 -10 -27 -10
-16 4 17 20 -1 20 -41 -1 -17 -8 -33 -13 -37 -10 -3 3 1 6 8 6 7 0 11 2 8 5
-2 3 -24 -2 -49 -10 -75 -25 -293 -65 -437 -80 -158 -17 -612 -20 -797 -5
-242 19 -415 42 -415 55 0 7 16 37 36 66 64 95 106 189 119 268 5 28 3 32 -10
27 -9 -3 -13 -2 -10 3 3 5 1 12 -5 16 -6 4 -8 10 -5 15 3 4 -4 6 -15 3 -12 -3
-20 0 -20 6 0 7 -4 9 -10 6 -5 -3 -10 -1 -10 5 0 6 -7 4 -16 -5 -10 -9 -24
-15 -33 -12 -12 3 -17 -5 -19 -32 -7 -97 -111 -236 -262 -350 l-78 -58 -203
-7 c-265 -9 -514 -24 -613 -37 -130 -17 -243 -80 -349 -193 -45 -48 -117 -150
-117 -165 0 -6 -4 -11 -9 -11 -5 0 -15 -15 -21 -34 -6 -19 -17 -40 -25 -46 -8
-6 -26 -43 -40 -81 -30 -78 -54 -92 -56 -31 -1 20 -3 48 -5 62 -2 14 -7 185
-10 380 -13 698 37 972 232 1266 47 71 194 266 407 538 178 227 413 403 802
598 110 55 192 97 183 94 -10 -3 -23 0 -30 7 -7 7 -23 13 -35 14 -47 2 -53 3
-53 14 0 5 5 7 12 3 6 -4 8 -3 5 3 -4 6 -18 13 -32 15 -18 4 -25 1 -26 -11 0
-10 -2 -12 -6 -3 -2 6 -13 12 -23 12 -11 0 -23 7 -28 16 -8 15 -10 15 -15 -1
-4 -9 -11 -13 -17 -10 -17 11 -51 14 -45 5 3 -5 -3 -8 -13 -7 -21 1 -146 -73
-334 -199 -269 -181 -444 -317 -653 -508 l-60 -55 -23 22 c-13 12 -53 65 -88
118 l-64 96 0 106 c0 91 4 114 24 161 23 51 30 58 95 90 39 20 80 36 92 36 11
0 41 -18 65 -39 69 -61 108 -76 194 -76 60 0 86 6 132 27 91 42 187 143 193
203 3 21 -1 23 -51 24 -34 0 -54 -3 -54 -10 0 -8 -5 -8 -15 1 -8 7 -13 16 -10
20 3 5 -14 6 -37 4 -31 -3 -39 -2 -28 6 9 6 10 10 3 10 -6 0 -15 -5 -18 -10
-4 -7 -11 -7 -18 -2 -16 12 -58 22 -52 13 2 -5 -6 -6 -20 -4 -14 3 -22 10 -19
18 6 14 -7 14 -39 0 -10 -4 -21 -5 -24 -1 -4 3 2 6 13 6 15 0 16 2 5 9 -8 5
-27 8 -42 6 -21 -3 -26 0 -22 11 4 12 0 14 -22 8 -20 -5 -26 -4 -21 5 6 10
-19 17 -46 12 -5 0 -8 4 -8 10 0 7 -10 9 -25 5 -20 -5 -23 -3 -18 11 4 10 2
14 -4 10 -5 -3 -25 5 -43 18 -38 28 -44 30 -34 13 5 -10 4 -10 -6 -1 -15 14
-43 6 -33 -10 3 -6 1 -7 -5 -3 -6 4 -8 14 -5 24 6 15 5 15 -10 3 -15 -12 -17
-12 -11 4 5 12 4 16 -4 11 -6 -4 -19 2 -29 14 -17 20 -60 29 -48 10 4 -6 10
-8 15 -5 5 3 11 1 15 -5 8 -13 -11 -13 -36 1 -11 5 -16 15 -13 21 4 7 3 8 -4
4 -7 -4 -12 -3 -12 2 0 5 -6 9 -14 9 -8 0 -12 -6 -9 -14 3 -7 9 -11 13 -8 5 3
9 -3 9 -12 -1 -10 12 -53 27 -95 25 -70 26 -82 15 -118 -7 -23 -18 -43 -26
-46 -7 -3 -37 17 -67 46 -73 70 -165 115 -237 114 -31 0 -68 -6 -83 -14 -77
-42 -222 -127 -244 -145 l-26 -21 105 -67 c130 -84 168 -100 235 -99 47 0 65
7 146 56 123 75 136 74 94 -6 -20 -38 -23 -58 -23 -173 0 -222 36 -332 147
-444 l60 -61 -57 -62 c-165 -184 -288 -327 -382 -445 -122 -155 -106 -152
-224 -34 -182 182 -326 478 -429 877 -57 220 -74 343 -74 534 0 392 98 760
268 1013 25 37 46 73 46 80 0 9 -3 8 -9 -1 -6 -10 -10 -9 -14 7 -3 12 -13 21
-22 21 -10 0 -13 5 -9 12 5 7 2 9 -8 5 -12 -4 -14 0 -10 16 5 19 3 20 -10 9
-14 -11 -16 -11 -12 5 4 13 -1 19 -16 20 -15 1 -27 -12 -49 -55z m-1880 -935
c-13 -13 -26 -3 -16 12 3 6 11 8 17 5 6 -4 6 -10 -1 -17z m39 2 c0 -6 -4 -7
-10 -4 -5 3 -10 11 -10 16 0 6 5 7 10 4 6 -3 10 -11 10 -16z m-25 -19 c-3 -5
-12 -10 -18 -10 -7 0 -6 4 3 10 19 12 23 12 15 0z m-1651 -2234 c14 -19 26
-38 26 -43 -1 -9 -86 -63 -99 -63 -5 0 -16 10 -24 23 -14 22 -13 26 19 70 19
26 38 47 43 47 5 0 20 -15 35 -34z m5100 -4101 c3 -8 1 -15 -4 -15 -6 0 -10 7
-10 15 0 8 2 15 4 15 2 0 6 -7 10 -15z"/>
<path d="M10137 7568 c10 -12 9 -19 -8 -36 -11 -12 -17 -22 -14 -22 3 0 -4 -9
-15 -20 -12 -12 -18 -25 -15 -30 9 -15 -24 -25 -37 -12 -13 13 8 46 23 36 5
-3 9 0 9 6 0 7 -7 9 -16 6 -9 -4 -22 -2 -29 4 -10 8 -15 8 -21 -1 -4 -8 -3 -9
4 -5 7 4 12 2 12 -3 0 -6 -7 -11 -15 -11 -8 0 -15 6 -15 13 0 9 -2 9 -9 -1 -4
-8 -11 -13 -15 -13 -15 2 -16 0 -5 -20 9 -17 7 -25 -10 -43 -19 -20 -20 -25
-7 -35 14 -12 14 -15 -1 -29 -10 -11 -12 -17 -4 -20 15 -5 46 -63 42 -81 -1
-9 3 -12 13 -8 8 3 18 2 21 -4 4 -5 11 -7 16 -4 5 4 13 -4 17 -16 7 -19 10
-20 15 -6 4 10 11 17 17 17 6 0 9 -4 5 -9 -3 -6 5 -15 17 -21 21 -10 22 -10 5
3 -12 10 -14 17 -7 22 5 3 8 11 5 16 -4 5 -2 9 4 9 5 0 11 -5 13 -12 5 -13 38
-20 38 -7 0 4 9 13 20 19 17 9 19 8 13 -7 -6 -15 -5 -16 9 -3 18 17 17 38 -1
50 -9 5 -10 10 -2 14 6 4 11 2 11 -5 0 -8 4 -8 15 1 8 7 13 16 10 20 -3 4 4
10 15 13 11 3 20 11 20 19 0 11 -2 11 -9 0 -7 -11 -9 -11 -14 2 -4 9 -2 16 3
16 6 0 10 5 10 10 0 6 -3 9 -7 9 -20 -3 -27 2 -14 10 12 8 11 14 -5 41 -18 32
-38 41 -40 20 -1 -5 -2 -14 -3 -19 0 -5 -8 -11 -15 -14 -10 -4 -13 -1 -9 9 3
7 8 14 12 14 4 0 8 7 8 15 0 10 -6 13 -19 9 -10 -3 -18 0 -18 6 0 6 5 8 10 5
6 -3 10 -1 10 4 0 6 -5 11 -11 11 -5 0 -7 5 -4 10 8 13 -18 8 -27 -5 -5 -7 -8
-7 -8 0 0 15 16 37 26 35 19 -4 14 20 -8 31 -20 11 -21 10 -11 -3z m-17 -111
c0 -5 -4 -5 -10 -2 -5 3 -10 14 -10 23 0 15 2 15 10 2 5 -8 10 -19 10 -23z
m21 11 c11 -21 11 -22 -4 -9 -10 7 -17 17 -17 22 0 15 9 10 21 -13z m-120 -4
c2 3 9 -6 16 -20 6 -13 7 -22 2 -18 -5 3 -9 1 -9 -4 0 -6 -10 -8 -22 -4 -14 3
-19 1 -14 -6 3 -6 2 -13 -4 -17 -5 -3 -10 -1 -10 5 0 6 -5 8 -10 5 -6 -4 -7
-11 -4 -17 5 -7 2 -8 -6 -3 -10 6 -7 13 13 30 17 16 22 26 15 33 -15 15 0 36
16 23 7 -6 15 -9 17 -7z m210 -15 c6 -13 7 -19 1 -15 -6 3 -12 0 -15 -6 -2 -7
-4 -1 -3 14 1 34 2 34 17 7z m-1 -54 c0 -8 -4 -15 -10 -15 -5 0 -7 7 -4 15 4
8 8 15 10 15 2 0 4 -7 4 -15z m-209 -9 c-8 -10 -9 -16 -1 -21 5 -3 14 4 19 17
6 13 10 16 10 8 1 -22 -15 -44 -27 -36 -20 12 -24 -15 -5 -36 10 -12 12 -18 6
-14 -7 4 -13 3 -13 -1 0 -15 22 -32 35 -27 7 3 16 1 20 -5 3 -6 11 -11 17 -11
7 0 6 6 -2 15 -7 8 -9 15 -5 15 4 0 2 6 -4 13 -8 10 -7 14 2 14 8 0 14 -5 14
-11 0 -6 3 -23 6 -38 6 -29 -16 -46 -38 -28 -6 5 -14 7 -17 5 -3 -3 -18 11
-33 30 -15 20 -24 39 -21 42 3 4 6 1 6 -6 0 -7 5 -9 12 -5 7 5 5 12 -8 22 -13
10 -15 16 -6 19 6 3 12 13 12 22 0 20 8 31 23 31 5 0 4 -6 -2 -14z m160 -9
c-10 -9 -11 -8 -5 6 3 10 9 15 12 12 3 -3 0 -11 -7 -18z m47 -32 c0 -17 -6
-25 -17 -24 -9 0 -11 3 -5 5 7 3 10 14 7 24 -3 11 -1 20 5 20 5 0 10 -11 10
-25z m-98 -75 c0 -5 -5 -10 -11 -10 -5 0 -7 5 -4 10 3 6 8 10 11 10 2 0 4 -4
4 -10z m30 -24 c0 -3 -4 -8 -10 -11 -5 -3 -10 -1 -10 4 0 6 5 11 10 11 6 0 10
-2 10 -4z"/>
<path d="M10190 7500 c0 -6 7 -10 15 -10 8 0 15 2 15 4 0 2 -7 6 -15 10 -8 3
-15 1 -15 -4z"/>
<path d="M10260 7310 c0 -5 5 -10 11 -10 5 0 7 5 4 10 -3 6 -8 10 -11 10 -2 0
-4 -4 -4 -10z"/>
<path d="M9952 7290 c7 -10 14 -18 15 -16 6 6 -9 36 -18 36 -5 0 -4 -9 3 -20z"/>
<path d="M11497 7275 c-4 -8 -3 -16 1 -19 4 -3 9 4 9 15 2 23 -3 25 -10 4z"/>
<path d="M10220 7221 c0 -6 4 -13 10 -16 6 -3 7 1 4 9 -7 18 -14 21 -14 7z"/>
<path d="M10175 7209 c-11 -16 -1 -19 13 -3 7 8 8 14 3 14 -5 0 -13 -5 -16
-11z"/>
<path d="M9654 6834 c5 -14 4 -15 -9 -4 -9 7 -18 10 -22 6 -3 -3 -1 -6 5 -6 7
0 12 -4 12 -8 0 -5 -7 -9 -15 -9 -8 0 -15 6 -15 14 0 11 -4 11 -19 1 -11 -7
-17 -17 -13 -23 3 -5 -2 -4 -11 4 -14 11 -20 11 -34 0 -10 -8 -14 -9 -10 -2 4
6 3 14 -3 18 -5 3 -10 -1 -10 -9 0 -9 -5 -16 -11 -16 -5 0 -7 5 -3 12 4 7 3 8
-5 4 -6 -4 -9 -12 -6 -17 4 -5 1 -9 -5 -9 -6 0 -9 -4 -6 -8 3 -5 -5 -7 -17 -6
-12 1 -29 3 -37 3 -13 1 -13 2 0 11 8 5 11 10 5 10 -18 0 -38 -18 -31 -28 8
-13 -27 -10 -36 3 -5 6 -8 3 -8 -7 0 -9 6 -19 13 -21 6 -3 2 -6 -11 -6 -19 -1
-22 3 -17 22 5 17 4 19 -4 6 -11 -17 -4 -59 10 -59 5 0 6 -6 3 -13 -6 -16 44
-64 71 -69 18 -3 21 -14 27 -96 9 -128 23 -181 70 -252 22 -34 38 -63 36 -65
-2 -2 -26 10 -53 27 -72 45 -129 65 -225 78 -132 17 -128 16 -140 59 -5 21
-22 50 -37 65 -26 26 -31 27 -98 21 -46 -3 -74 -11 -81 -21 -9 -12 -13 -12
-17 -2 -2 7 -7 10 -11 7 -3 -3 4 -19 16 -34 13 -16 16 -25 8 -20 -27 17 -37
13 -32 -11 2 -14 0 -24 -7 -24 -8 0 -9 -5 -2 -19 6 -10 7 -22 3 -26 -4 -4 4
-2 18 5 24 12 24 11 8 -5 -13 -14 -14 -23 -6 -46 6 -18 14 -26 21 -22 7 4 6
-1 -2 -10 -11 -15 -10 -18 12 -26 32 -12 67 -10 67 4 0 5 4 5 8 -2 6 -9 18 -9
52 -1 25 6 47 14 50 17 3 3 10 6 15 6 6 1 37 7 70 14 45 10 74 11 115 3 62
-12 170 -50 170 -60 0 -4 -39 -15 -86 -25 -47 -10 -110 -27 -140 -38 -59 -22
-124 -72 -124 -95 0 -12 -18 -18 -56 -17 -7 0 -9 -8 -6 -21 3 -11 7 -15 10 -8
5 15 32 16 32 1 0 -5 -4 -8 -9 -5 -5 3 -12 -2 -16 -12 -6 -16 -7 -16 -17 2 -8
15 -12 16 -19 5 -6 -10 -9 -7 -9 11 -1 25 -1 25 -10 3 -5 -13 -12 -23 -15 -23
-4 0 -3 5 0 10 4 6 -3 9 -17 6 -18 -2 -23 -10 -23 -32 -1 -16 -4 -28 -8 -26
-4 1 -11 2 -17 2 -6 0 -6 9 0 26 7 16 7 23 0 19 -6 -3 -10 -13 -10 -21 0 -8
-5 -14 -11 -14 -5 0 -7 -4 -4 -10 3 -5 0 -10 -7 -10 -9 0 -9 -3 2 -10 9 -6 10
-10 3 -10 -7 0 -10 -9 -7 -22 3 -13 8 -34 11 -48 3 -14 6 -30 6 -37 0 -7 7
-15 15 -18 8 -3 12 -12 9 -19 -4 -10 0 -14 13 -11 14 3 17 -2 15 -20 -2 -24
-2 -24 28 -8 44 22 125 101 152 148 13 22 27 59 31 82 6 39 12 45 89 96 l82
55 103 7 103 8 -7 -29 c-10 -37 -37 -75 -118 -163 -37 -40 -68 -77 -68 -82 0
-4 -17 -11 -37 -15 -56 -10 -106 -38 -143 -80 -30 -35 -32 -41 -27 -98 2 -34
12 -78 21 -98 15 -35 19 -38 59 -38 23 0 61 9 84 19 62 29 91 79 112 197 22
124 36 149 111 213 54 45 133 81 147 67 3 -2 10 -39 16 -81 9 -68 8 -80 -8
-107 -9 -17 -20 -59 -23 -95 -5 -62 -4 -65 29 -99 23 -23 54 -41 96 -54 34
-10 76 -26 92 -35 18 -9 32 -11 36 -5 13 21 18 167 6 188 -6 12 -38 35 -69 51
-73 37 -87 70 -77 177 l7 73 41 5 c23 3 74 9 112 13 61 7 70 11 70 28 0 11 -4
23 -10 27 -6 5 -5 8 3 8 6 0 12 5 12 11 0 5 -4 8 -9 5 -5 -3 -12 1 -15 10 -7
17 -36 14 -154 -17 -40 -11 -78 -17 -83 -14 -12 8 -11 129 2 184 5 24 19 57
30 73 11 15 17 28 13 28 -4 0 1 7 12 16 10 8 13 13 7 9 -7 -3 -13 -4 -13 0 0
3 10 10 23 16 47 21 63 35 59 49 -4 11 0 10 12 -3 12 -12 22 -14 30 -8 6 5 16
11 21 13 6 1 9 10 8 20 -1 9 5 22 15 30 15 11 16 11 4 -3 -10 -14 -10 -18 3
-23 9 -3 13 -2 10 4 -3 6 -1 10 6 10 7 0 10 3 6 6 -10 10 22 36 35 28 10 -5
10 -4 1 6 -9 10 -8 18 4 36 14 22 14 24 -1 24 -10 0 -13 -6 -9 -17 5 -15 3
-14 -10 2 -10 13 -12 24 -6 32 7 7 6 13 0 17 -6 4 -8 13 -5 20 3 7 -12 28 -32
45 -28 25 -39 30 -45 19 -6 -9 -9 -6 -9 11 0 13 -3 21 -7 18 -3 -4 -13 -1 -21
6 -10 7 -13 8 -9 1 4 -7 -2 -11 -17 -11 -14 0 -39 -11 -56 -23 l-32 -23 7 -86
7 -86 -76 -107 c-61 -85 -76 -113 -77 -144 -1 -22 -4 -52 -8 -69 -7 -29 -7
-29 -28 25 -65 173 -78 240 -58 299 13 38 22 49 55 63 54 23 80 68 80 141 0
63 -10 91 -36 101 -12 5 -15 2 -10 -10z m-210 -89 c-4 -8 -8 -15 -10 -15 -2 0
-4 7 -4 15 0 8 4 15 10 15 5 0 7 -7 4 -15z m540 -41 c3 -8 2 -12 -4 -9 -6 3
-10 10 -10 16 0 14 7 11 14 -7z m-1017 -467 c0 -8 -6 -14 -14 -14 -14 0 -17
10 -6 20 10 11 20 8 20 -6z m84 -10 c-10 -9 -11 -8 -5 6 3 10 9 15 12 12 3 -3
0 -11 -7 -18z"/>
<path d="M9445 6800 c-3 -5 -1 -10 4 -10 6 0 11 5 11 10 0 6 -2 10 -4 10 -3 0
-8 -4 -11 -10z"/>
<path d="M14008 6757 c-4 -19 -1 -27 8 -27 15 0 16 6 5 35 -7 17 -8 17 -13 -8z"/>
<path d="M11240 6765 c1 -5 7 -18 14 -28 12 -15 15 -15 26 -2 12 14 8 17 -16
14 -4 0 -11 5 -15 13 -5 7 -9 9 -9 3z"/>
<path d="M10080 6671 c0 -6 4 -13 10 -16 6 -3 7 1 4 9 -7 18 -14 21 -14 7z"/>
<path d="M11096 6467 c3 -10 9 -15 12 -12 3 3 0 11 -7 18 -10 9 -11 8 -5 -6z"/>
<path d="M16068 5743 c-30 -32 -48 -89 -48 -154 0 -110 -9 -136 -73 -206 -53
-59 -58 -68 -41 -73 25 -9 44 -2 45 19 0 9 3 11 5 4 3 -7 13 -9 22 -6 15 6 16
5 2 -13 -13 -17 -13 -18 0 -7 8 6 17 11 20 12 18 0 40 15 40 28 0 7 6 13 13
12 17 -3 64 17 72 32 4 6 1 15 -6 20 -12 8 -6 13 12 11 10 -2 19 70 13 95 -4
13 -11 20 -16 17 -6 -4 -5 2 1 14 15 27 14 37 -1 24 -10 -8 -13 -4 -13 16 0
15 4 33 8 40 5 7 3 12 -4 12 -6 0 -9 8 -6 20 3 11 2 20 -3 20 -4 0 -10 11 -12
25 -3 13 -2 22 2 20 5 -3 7 6 6 20 -1 32 -6 31 -38 -2z m63 -276 c-10 -9 -11
-8 -5 6 3 10 9 15 12 12 3 -3 0 -11 -7 -18z"/>
<path d="M15305 5384 c-65 -16 -236 -98 -255 -124 -3 -4 -24 -17 -48 -30 l-43
-24 68 -16 c40 -9 101 -36 148 -63 80 -46 92 -48 99 -10 5 25 28 63 38 63 5 0
8 7 8 15 0 9 5 21 10 28 6 7 18 21 26 32 9 11 13 14 9 8 -4 -9 -1 -11 9 -7 9
3 14 10 11 14 -5 8 24 25 38 22 4 -1 6 4 5 11 -2 6 5 11 14 11 10 -1 15 3 11
9 -4 7 0 8 11 4 29 -11 13 16 -21 35 -31 19 -104 30 -138 22z"/>
<path d="M18452 4700 c-18 -11 -40 -20 -50 -20 -15 0 -15 -2 -2 -10 12 -8 11
-10 -7 -10 -13 0 -23 -4 -23 -10 0 -5 -8 -7 -17 -4 -15 5 -16 4 -3 -5 13 -10
13 -12 0 -21 -11 -7 -11 -10 -2 -10 9 0 10 -5 3 -18 -11 -20 3 -42 25 -42 7 0
40 -25 72 -55 60 -55 77 -66 69 -42 -2 6 0 24 4 39 5 18 3 28 -4 31 -8 3 -5
11 8 21 13 10 15 14 4 11 -13 -5 -15 2 -14 32 0 21 -5 44 -12 52 -9 9 -10 17
-4 25 12 14 8 49 -5 53 -5 2 -24 -6 -42 -17z m48 -21 c0 -6 -4 -7 -10 -4 -5 3
-10 11 -10 16 0 6 5 7 10 4 6 -3 10 -11 10 -16z"/>
<path d="M18090 4338 c0 -6 -7 -20 -16 -30 -20 -21 -24 -20 110 -50 110 -26
98 -14 132 -132 14 -51 18 -57 29 -43 6 9 15 14 18 10 4 -3 7 1 7 10 0 9 8 21
18 26 9 6 13 11 9 11 -5 0 -1 7 7 16 9 8 14 20 10 25 -3 5 0 8 8 7 8 -2 13 6
12 18 0 16 4 20 20 16 15 -4 18 -1 13 11 -4 11 -1 17 8 17 17 0 30 43 19 61
-4 7 -3 9 3 6 6 -4 13 1 15 11 7 26 -42 27 -168 6 -96 -17 -106 -17 -163 -1
-72 20 -91 21 -91 5z"/>
<path d="M18056 4318 c3 -5 10 -6 15 -3 13 9 11 12 -6 12 -8 0 -12 -4 -9 -9z"/>
<path d="M17957 4255 c-8 -8 -18 -11 -22 -7 -4 4 -5 -7 -2 -24 23 -123 23
-124 -36 -185 -31 -32 -56 -68 -60 -85 -7 -37 2 -84 17 -85 23 -2 61 3 71 10
6 4 42 7 82 7 40 -1 66 3 60 7 -7 5 -3 7 10 4 17 -4 25 2 37 28 39 82 33 109
-48 210 -31 39 -62 85 -68 103 -13 36 -20 39 -41 17z"/>
<path d="M17390 3700 c-9 -6 -10 -10 -3 -10 6 0 15 5 18 10 8 12 4 12 -15 0z"/>
<path d="M15524 2475 c-5 -11 -17 -14 -52 -9 -25 3 -49 7 -53 10 -4 2 -10 1
-12 -3 -6 -10 -59 -9 -75 1 -8 5 -10 2 -5 -10 5 -14 3 -15 -15 -5 -14 7 -21 8
-24 0 -2 -5 -11 -7 -21 -4 -9 4 -14 11 -11 16 3 5 -2 6 -10 3 -8 -3 -12 -12
-9 -20 3 -8 9 -11 14 -8 5 3 9 0 9 -5 0 -6 -5 -11 -11 -11 -5 0 3 -11 18 -25
15 -13 23 -25 17 -25 -7 0 -14 7 -18 15 -3 8 -15 15 -27 15 -18 0 -19 -2 -9
-15 7 -8 16 -12 21 -9 5 3 9 -7 10 -23 0 -15 3 -22 6 -14 4 9 10 2 19 -19 12
-28 16 -31 30 -20 12 11 15 11 12 -1 -2 -8 3 -13 10 -11 8 1 11 -2 8 -6 -3 -5
3 -17 13 -26 18 -16 22 -14 82 55 35 40 81 90 102 112 20 22 37 41 37 42 0 6
-25 0 -39 -9 -11 -7 -13 -5 -8 7 3 10 4 17 1 17 -2 0 -7 -7 -10 -15z"/>
<path d="M16133 2480 c-13 -5 -23 -12 -23 -15 0 -4 6 -3 13 1 8 5 8 3 -2 -9
-19 -23 -11 -134 12 -169 l18 -26 23 21 c24 23 51 87 37 87 -5 0 -11 7 -14 14
-4 10 -1 13 9 9 7 -3 14 0 14 6 0 6 -9 11 -21 11 -19 0 -19 1 -5 16 9 8 13 20
10 26 -4 6 -10 5 -15 -3 -7 -12 -9 -11 -10 1 -1 8 -1 19 0 24 1 5 -6 3 -15 -5
-16 -12 -17 -12 -11 4 3 9 5 17 4 16 -1 0 -12 -4 -24 -9z m57 -170 c0 -5 -5
-10 -11 -10 -5 0 -7 5 -4 10 3 6 8 10 11 10 2 0 4 -4 4 -10z"/>
<path d="M15880 2432 l-30 -14 0 -120 0 -120 -60 -90 c-60 -89 -69 -108 -50
-108 6 0 10 5 10 11 0 5 5 7 10 4 6 -3 10 -1 10 5 0 6 4 9 9 5 5 -3 16 4 25
16 13 19 17 20 33 8 10 -7 15 -10 11 -5 -7 9 33 56 43 50 4 -2 13 4 20 13 12
14 12 16 -1 9 -8 -4 -6 -1 4 8 10 8 22 13 26 11 4 -3 15 4 25 15 10 11 24 20
32 20 15 0 49 28 42 34 -2 2 -23 13 -46 25 l-42 21 -4 97 c-3 54 -6 103 -8
109 -3 15 -23 13 -59 -4z"/>
<path d="M14546 738 c3 -5 10 -6 15 -3 13 9 11 12 -6 12 -8 0 -12 -4 -9 -9z"/>
</g>
</svg>
